<?xml version="1.0" encoding="utf-8"?>
<!-- Generator: Adobe Illustrator 25.4.1, SVG Export Plug-In . SVG Version: 6.00 Build 0)  -->
<svg version="1.1" id="Layer_1" xmlns="http://www.w3.org/2000/svg" xmlns:xlink="http://www.w3.org/1999/xlink" x="0px" y="0px"
	 viewBox="0 0 359.37 369.69" style="enable-background:new 0 0 359.37 369.69;" xml:space="preserve">
<style type="text/css">
	.st0{fill:#335382;}
</style>
<g>
	<path class="st0" d="M178.65,0c11.62,0.41,22.47,2.83,32.79,8.19c6.81,3.53,14.1,6.12,21.08,9.34c7.31,3.37,14.46,7.09,21.76,10.48
		c3.72,1.73,7.54,3.35,11.46,4.51c5.46,1.61,11.08,2.64,16.57,4.14c1.53,0.42,3.52,1.29,4.15,2.54
		c6.59,12.98,16.56,23.22,26.62,33.4c9.28,9.39,18.78,18.57,27.87,28.13c7.22,7.6,13.45,16.23,16.27,26.32
		c2.01,7.19,2.21,15.04,2.22,22.59c0.01,8.45-0.8,16.95-1.79,25.36c-1.45,12.36-3.78,24.63-4.95,37.01
		c-0.67,7.11-0.33,14.44,0.58,21.54c0.53,4.1,0.36,7.23-2.72,10.05c-7.37,6.75-12.1,15.29-16.52,24.09
		c-5.33,10.59-10.64,21.2-16.34,31.59c-5.78,10.53-11.32,21.31-19.77,30.07c-4.65,4.83-9.88,8.91-16.18,11.73
		c-9.02,4.04-18.24,7.06-27.98,8.81c-11.85,2.12-23.68,4.45-35.38,7.27c-9.76,2.36-19.33,5.54-28.96,8.43
		c-0.91,0.27-1.67,1.04-2.48,1.62c-4.27,3.08-8.48,3.34-13.17,0.56c-6.44-3.82-13.39-6.27-20.85-7.64
		c-10.25-1.88-20.4-4.35-30.56-6.73c-12.69-2.98-25.63-5.27-37.92-9.46c-12.23-4.17-22.61-11.81-29.21-23.5
		c-5.72-10.14-11.37-20.32-16.9-30.56c-4.06-7.51-7.45-15.43-11.94-22.67c-5.08-8.19-10.9-15.93-16.73-23.62
		c-2.1-2.77-3.04-5.31-2.95-8.83c0.25-10.95,0.63-21.96-0.17-32.86C5.75,191,3.51,180.22,2.1,169.36
		c-0.93-7.13-2.38-14.33-2.05-21.43c0.37-8.13,1.39-16.56,4.12-24.14c2.45-6.82,6.84-13.33,11.69-18.81
		c9.77-11.04,20.63-21.1,30.65-31.92c8.07-8.71,15.61-17.93,23.31-26.98c0.78-0.91,1.02-2.27,1.64-3.34
		c2.11-3.6,4.28-6.49,9.38-6.65c4.48-0.14,9.07-1.72,13.31-3.42c7.7-3.08,15.18-6.7,22.74-10.13c7-3.18,13.94-6.51,20.97-9.62
		c8.04-3.55,15.99-7.4,24.29-10.22C167.36,0.94,173.13,0.85,178.65,0z M346.08,152c1.18-14.68-3.52-27.46-12.82-38.41
		c-10.68-12.58-22.09-24.54-32.92-36.99c-7.59-8.73-14.57-17.94-18.51-29.07c-1.16-3.27-4.03-4.2-7.42-4.56
		c-6.41-0.68-13.09-0.93-19.1-3c-13.38-4.6-26.41-10.2-39.57-15.43c-3.92-1.56-7.8-3.24-11.71-4.83
		c-12.66-5.15-25.36-8.91-39.01-3.18c-11.9,4.99-24.06,9.35-35.98,14.29c-14.16,5.87-28.21,11.96-43.91,12.22
		c-3.37,0.06-5.48,1.56-6.78,4.76c-5.04,12.35-13.08,22.75-21.79,32.65C46.41,92,35.89,103.23,25.88,114.89
		c-5.82,6.78-9.76,14.65-10.73,23.78c-1.7,15.9,0.31,31.63,2.09,47.36c1.67,14.67,3.22,29.33-1.06,43.81
		c-1.45,4.92-1.4,8.31,3.33,12.18c11.97,9.8,19.54,23.27,27.35,36.39c6.72,11.29,13.34,22.64,20.06,33.93
		c5.87,9.86,14.84,16.01,25.37,19.6c9.65,3.29,19.64,5.56,29.5,8.22c11.18,3.02,22.53,5.52,33.52,9.15
		c6.76,2.23,13.21,5.74,19.35,9.43c4.38,2.63,5.95,3.42,10,0.56c10.14-7.17,21.71-11.03,33.46-14.28
		c15.96-4.41,32.1-8.14,48.05-12.58c11.71-3.26,21.13-10.5,27.63-20.51c8.58-13.22,16.1-27.13,23.97-40.8
		c6.62-11.49,14.21-22.2,24.46-30.78c2.96-2.48,4.19-5.12,2.04-8.78c-0.67-1.14-1.05-2.6-1.09-3.93
		c-0.41-11.44-1.39-22.91-0.89-34.32C342.89,179.51,344.76,165.77,346.08,152z"/>
	<path class="st0" d="M180.28,322.17c-76.76,0.8-138.49-61.96-137.77-138.31c0.72-75.75,60.81-136.61,138.32-136.41
		c76.02,0.19,137.24,61.77,136.75,138.47C317.1,261.4,255.83,322.62,180.28,322.17z M299.95,185.58
		c1.75-65.41-53.09-121.97-121.97-120.98c-64.13,0.92-117.69,52.75-118.35,119.32c-0.66,66.81,53.25,119.8,117.86,121.28
		C244.87,306.75,301.19,250.6,299.95,185.58z"/>
	<path class="st0" d="M109.91,133.14c18.62,0,31.62,6.54,41.86,18.72c2.86,3.4,5.24,7.21,7.73,10.91c1.87,2.77,5.04,3.27,7.65,1.2
		c1.64-1.31,3.46-2.4,5.22-3.54c2.41-1.57,3.14-4.43,1.4-6.35c-7.86-8.66-11.47-19.08-12.4-30.5c-1.01-12.52,1.37-24.29,8.63-34.8
		c2.18-3.16,4.22-6.45,6.64-9.42c2.65-3.25,4.43-3.01,7.09,0.26c6.1,7.5,11.12,15.69,13.61,25.03c2.63,9.88,3.15,20.1-0.67,29.79
		c-2.57,6.51-6.25,12.61-9.66,18.76c-1.85,3.33-1.35,6.17,1.92,8.15c1.69,1.03,3.23,2.32,4.92,3.33c2.29,1.37,4.17,0.97,5.73-1.38
		c1.92-2.9,4.09-5.62,6.09-8.47c4.97-7.1,11.49-12.68,19.11-16.38c12.64-6.14,26-7.31,39.54-2.73c2.83,0.95,5.71,1.92,8.29,3.38
		c3.49,1.97,3.83,3.63,1.73,6.99c-7.84,12.57-17.28,23.77-31.35,29.37c-8.62,3.43-17.91,5.54-27.43,3.09
		c-3.5-0.9-6.98-1.88-10.47-2.8c-3.95-1.05-5.29-0.28-7,3.45c-7.82,17.05-11.37,35.21-14.11,53.59c-0.4,2.65,0.68,4.01,3.17,4.56
		c3.59,0.79,6.5-0.36,7.38-3.26c2.47-8.16,6.84-15.17,12.65-21.29c6.73-7.09,14.36-12.71,23.51-16.69
		c10.85-4.71,22.3-6.76,33.59-9.6c3.84-0.96,7.85-1.26,11.8-1.69c2.72-0.3,3.91,1.42,3.12,4.27c-3.42,12.39-10.7,22.3-19.75,31.13
		c-6.96,6.79-15.26,11.43-24.1,15.23c-0.91,0.39-1.88,0.71-2.85,0.9c-9.26,1.82-18.53,3.64-27.81,5.38
		c-5.01,0.94-6.23,1.94-6.53,6.98c-0.17,2.87-1.41,4.16-4.13,4.05c-2.8-0.11-2.55-2.16-2.39-4.09c0.21-2.55-0.56-4.52-3.37-4.9
		c-2.98-0.4-4.91,1.33-5.21,4.45c-0.07,0.74,0.12,1.6-0.19,2.21c-0.47,0.93-1.26,2.33-1.96,2.36c-1.01,0.04-2.39-0.74-3.01-1.6
		c-0.66-0.92-0.63-2.34-0.87-3.54c-0.55-2.78-2.32-4.13-5.06-3.88c-2.78,0.26-4.84,1.49-4.34,4.81c0.31,2.04,0.14,4.28-2.23,4.19
		c-1.11-0.04-2.79-2.28-3.1-3.76c-1.01-4.84-2.65-6.78-7.57-6.89c-10.08-0.24-19.86-2.13-29.17-5.79
		c-9.9-3.9-18.85-9.58-26.22-17.35c-3.47-3.66-6.74-7.65-9.38-11.93c-2.7-4.39-4.53-9.32-6.71-14.03c-0.47-1.01-0.69-2.15-1.18-3.14
		c-1.87-3.81-1.22-5.5,2.94-5.2c6.28,0.46,12.51,1.73,18.75,2.73c2.08,0.34,4.14,0.86,6.19,1.38c11.89,3.03,22.98,7.76,33.01,14.99
		c7.69,5.55,13.86,12.4,18.58,20.54c1.79,3.09,2.92,6.58,4.26,9.93c1.46,3.64,4.38,3.75,7.47,3.06c3.33-0.75,3.34-3.51,2.77-6
		c-3.23-14.17-6.51-28.33-10.01-42.44c-0.83-3.34-2.53-6.48-3.89-9.68c-1.3-3.08-3.8-4.24-6.92-3.22c-11.95,3.91-24,4.63-35.99,0.44
		c-7.59-2.66-14.44-6.97-19.83-12.84c-5.42-5.91-9.96-12.64-14.75-19.11c-1.58-2.14-0.13-4.72,3.48-6.1
		C95.95,135.33,103.74,132.1,109.91,133.14z M154.96,236.96c0.74-0.33,3.2-0.69,3.51-1.72c0.52-1.67,0.21-4.15-0.75-5.63
		c-3.24-4.97-6.63-9.89-10.49-14.38c-7.84-9.13-18.42-14.19-29.53-17.88c-7.98-2.65-16.33-4.21-24.54-6.12
		c-1.29-0.3-2.75,0.14-4.14,0.23c0.12,1.44-0.16,3.07,0.44,4.27c4.65,9.35,10.97,17.52,19.05,24.09
		C121.7,230.55,137.47,234.73,154.96,236.96z M207.24,236.81c2.83-0.67,7.26-1.99,11.78-2.74c8.3-1.39,15.9-4.38,23.38-8.2
		c12.96-6.63,20.75-17.84,27.72-29.86c0.64-1.11,0.02-3.07-0.33-4.56c-0.08-0.34-1.54-0.68-2.25-0.51
		c-6.85,1.68-13.66,3.51-20.51,5.2c-9.88,2.44-18.93,6.67-27.06,12.73c-7.99,5.96-14.43,13.27-18.14,22.69
		C200.26,235.54,201.16,236.77,207.24,236.81z M136.86,174.06c5.13-1.23,10.38-2.09,15.35-3.8c4.26-1.46,4.48-3.44,1.63-7.02
		c-2.32-2.91-4.63-5.85-7.09-8.64c-5.25-5.96-11.59-10.62-19.12-13.04c-10.32-3.32-20.89-2.62-31.36-0.29
		c-4.32,0.96-5.21,3.88-2.31,7.37c1.51,1.82,3.12,3.55,4.63,5.37C108.48,165.93,120.49,173.64,136.86,174.06z M202.62,166.55
		c1.92,1.59,2.67,2.46,3.63,2.96c10.14,5.33,20.86,4.78,31.29,1.79c12.57-3.6,20.8-13.2,28.44-23.18c2.64-3.45,1.2-6.56-3.02-7.1
		c-2.97-0.38-5.91-0.94-8.88-1.24c-11.86-1.2-23.37-0.11-32.75,8.01C214.82,153.42,209.11,159.97,202.62,166.55z M193.67,118.71
		c-1.04-10.57-3.63-20.53-10.01-29.31c-2.99-4.11-5.11-4.62-7.45-0.35c-3.22,5.85-6.85,11.88-8.2,18.28
		c-2.6,12.3-1.2,24.55,5.2,35.77c1.59,2.78,3.41,5.46,5.48,7.89c0.47,0.56,3.1,0.35,3.56-0.32
		C188.95,141.08,192.59,130.36,193.67,118.71z M179.75,213.83c0.54-0.06,1.09-0.12,1.63-0.18c0.47-1.6,1.01-3.18,1.41-4.8
		c1.56-6.39,2.81-12.87,4.71-19.15c1.31-4.35,3.25-8.57,5.39-12.6c1.67-3.13,1.41-5.7-1.61-7.56c-1.89-1.16-3.76-2.36-5.57-3.65
		c-5.13-3.68-7.38-3.57-12.33,0.67c-0.94,0.8-1.92,1.6-3,2.19c-4.22,2.29-5.14,4.68-2.88,9.05c4.33,8.36,6.96,17.23,8.78,26.44
		C176.92,207.54,178.56,210.64,179.75,213.83z"/>
	<path class="st0" d="M234.48,266.98c-2.7,1.98-4.44,4.07-6.6,4.69c-10.55,3.04-18.62,10.31-27.76,15.73
		c-9.5,5.63-19.18,10.13-30.24,4.88c-5.02-2.38-9.68-5.54-14.37-8.55c-7.2-4.61-14.1-9.72-22.67-11.71c-2.81-0.65-5.94-1.61-5.96-5
		c0-0.61,4.64-2.16,6.82-1.71c5.43,1.12,10.87,2.68,15.96,4.88c9.19,3.98,18.4,8.22,28.51,8.11c6.85-0.08,13.87-1.44,20.47-3.4
		c7.59-2.25,14.75-5.95,22.2-8.72C224.86,264.69,229.08,264.58,234.48,266.98z"/>
</g>
</svg>
