<?xml version="1.0" encoding="utf-8"?>
<!-- Generator: Adobe Illustrator 25.4.1, SVG Export Plug-In . SVG Version: 6.00 Build 0)  -->
<svg version="1.1" id="Layer_1" xmlns="http://www.w3.org/2000/svg" xmlns:xlink="http://www.w3.org/1999/xlink" x="0px" y="0px"
	 viewBox="0 0 512 512" style="enable-background:new 0 0 512 512;" xml:space="preserve">
<style type="text/css">
	.st0{fill:#EAEAEA;}
</style>
<path class="st0" d="M510.5,512H1.5c-0.8,0-1.5,0.8-1.5,0V0h510.5c0.8,0,1.5-0.8,1.5,0v512C512,512.8,511.3,512,510.5,512z
	 M151.8,134C92.6,90.6,26.6,156.6,70,215.8c0.6,0.8,1.3,1.6,2.2,2.2c59.2,43.5,125.2-22.5,81.7-81.7
	C153.3,135.4,152.6,134.7,151.8,134z M64,384h384V272l-87.5-87.5c-4.7-4.7-12.3-4.7-17,0L208,320l-55.5-55.5c-4.7-4.7-12.3-4.7-17,0
	L64,336V384z"/>
</svg>
